<?xml version="1.0" encoding="UTF-8"?>
<svg id="Layer_2" data-name="Layer 2" xmlns="http://www.w3.org/2000/svg" viewBox="0 0 234.78 256.87">
  <defs>
    <style>
      .cls-1 {
        fill: #a000fc;
      }

      .cls-1, .cls-2 {
        stroke-width: 0px;
      }

      .cls-2 {
        fill: #fff;
      }
    </style>
  </defs>
  <g id="Layer_1-2" data-name="Layer 1">
    <path class="cls-1" d="M94.39,6.16L23,47.38C8.77,55.6,0,70.78,0,87.22v82.44c0,16.43,8.77,31.62,23,39.84l71.39,41.22c14.23,8.22,31.77,8.22,46,0l71.39-41.22c14.23-8.22,23-23.4,23-39.84v-82.44c0-16.43-8.77-31.62-23-39.84L140.39,6.16c-14.23-8.22-31.77-8.22-46,0Z"/>
    <path class="cls-2" d="M212.04,151.97c-1.43-10.55-8.54-19.61-17.91-24.43-11.21-5.76-24.93-3.96-37.1-3.98-4.87,0-9.51-.81-13.77-3.28-2.52-1.57-4.56-3.68-6.24-6.08-.82-1.17-2.49-2.63-1.89-3.85.57-1.16,2.63-.4,4.01-.36,12.13.32,22.87-3.29,31.78-11.6,5.22-4.87,9.06-10.72,10.5-17.88,3.02-15.03-2-27.2-13.55-36.78-7.85-6.52-17.35-9.12-27.28-10.3-6.86-.82-13.73-.05-20.37,1.32-17.63,3.65-31.37,12.92-39.85,29.25-4.96,9.56-6,19.99-7.28,30.43-1.47,11.99-7.33,21.12-18.35,26.63-8.09,4.04-16.64,5.3-23.24,12-5.8,5.89-9.43,14.03-9.29,22.34.15,9.23,4.92,18.08,12.05,23.82,6.61,5.32,14.99,6.91,23.28,6.88,7.9-.03,15.29-.81,18.62-9.17,2.08-5.22,1.74-11.04,1.38-16.65-.03-.46-.09-.98-.46-1.25-.28-.21-.65-.21-.99-.21-3.9.01-7.8.02-11.7.03-.6,0-1.28.04-1.68.49-.33.38-.35.94-.34,1.45.02,2.14.11,4.29.05,6.43-.01.38-.12.79-.43,1.01-.21.15-.48.19-.74.23-3.08.42-6.3.61-9.41.28-1.39-.15-2.77-.41-4.1-.85-1.19-.4-2.79-.97-3.7-1.88-5.5-3.99-6.57-12.75-2.39-18.11,4.25-5.46,11.82-6.66,18.38-8.87,4.87-1.64,9.48-4.04,13.63-7.06,1.67-1.22,3.26-2.54,4.77-3.95.73-.69,1.39-1.45,2.03-2.22.61-.73,1.2-1.57,1.96-2.14.07-.05.17-.11.25-.07.08.04.09.14.1.23.09,1.35.08,2.71-.02,4.07-.09,1.31-.08,2.59-.08,3.9,0,13.57,7.63,25.37,14.59,36.45,4.28,6.8,6.73,14.5,7.37,22.49.19,2.38.57,4.74.64,7.13.07,2.28.19,5.8-1.9,7.34-.59.43-1.34.63-2.07.67-1.4.08-2.85-.13-4.26-.13-1.51,0-3.03.04-4.54,0-1.51-.03-2.13-.95-2.13-2.39.11-3.21-.02-6.42.1-9.62.06-1.66-.52-2.2-2.16-2.17-3.89.09-7.78,0-11.66.03-.79,0-1.97-.35-1.94,1.06.12,5.42-.91,10.91.47,16.25.99,3.8,2.76,6.86,5.24,9.12,5.52,5.03,14.66,6.04,21.81,5.7,4.93-.23,9.97-1.75,13.55-5.15,7.67-7.27,8.17-21.88,6.57-31.55-2.86-17.33-15.28-30.94-19.65-47.69-.47-1.8-.78-3.64-.92-5.5-.14-1.83-.21-3.73.38-5.5.01-.04.03-.08.07-.1.07-.03.13.04.17.1.77,1.13,1.23,2.45,1.69,3.72,1.8,4.86,8.37,14.7,12.12,20.41,3.91,5.98,8.38,11.53,11.22,18.15,1.49,3.47,2.62,7.1,3.36,10.81.75,3.74.83,7.49,1.2,11.27.15,1.54.35,3.09.65,4.61.8,4.06,2.41,8.1,5.42,10.94,6.36,5.99,16.75,5.53,24.73,4.23,7.56-1.24,12.6-5.79,14.55-13.28,1.37-5.25.35-10.66.46-16,.03-1.38-1.13-1.04-1.91-1.04-3.83-.03-7.66.06-11.49-.03-1.61-.04-2.19.5-2.13,2.13.12,3.16,0,6.32.1,9.48.07,2.04-1.81,2.3-3.4,2.31-1.8,0-3.6.01-5.4.02-1.5,0-3.13.27-4.29-.89-.57-.87-.66-1.96-.74-3-.35-4.42-.69-8.88-1.51-13.24-.78-4.1-2.38-8.19-3.89-12.07-3.15-8.06-7.13-15.76-11.33-23.32-.69-1.23-9.38-16.87-9.32-16.86.2.06.38.18.55.31,1.5,1.08,2.99,2.16,4.44,3.3,1.73,1.35,3.49,2.69,5.45,3.69,1.3.93,2.72,1.65,4.17,2.35,7.67,3.69,16.37,4.48,24.78,4.43,12.61-.07,33.37-1.72,34.29,16.14.12,2.3-.54,3.32-3.03,3.26-5.55-.14-11.11-.02-16.66-.1-1.48-.02-2.28.19-2.22,1.97.12,4.02.07,8.05.02,12.07-.02,1.3.32,1.89,1.75,1.88,4.58,0,9.16-.08,13.75-.11,6.14-.04,12.24-.02,18.38.16,1.26.04,3.03.02,3.77-1.22.3-.49.33-1.09.35-1.67.12-3.29.26-6.57.32-9.86.06-3.77-.03-7.56-.53-11.3Z"/>
    <path class="cls-1" d="M93.46,76.15c6.13-3.47,12.28-6.95,18.39-10.41,3.51,4.77.97,11.35-3.44,14.15-3.96,2.52-11.67,2.62-14.95-3.75Z"/>
  </g>
</svg>