<svg width="1920" height="832" viewBox="0 0 1920 832" fill="none" xmlns="http://www.w3.org/2000/svg">
<g filter="url(#filter0_f_49_32)">
<path d="M1676.89 713.456C1775.45 571.761 1723.8 434.792 1830.35 299.002C2045.47 24.8348 2108.31 981.084 1830.35 1191.3C1620.09 1350.32 1142.21 1454.56 1155.26 1191.3C1164.84 998.103 1399.66 1011.33 1534.63 872.738C1592.82 812.987 1629.27 781.923 1676.89 713.456Z" fill="#A000FC"/>
<path d="M352.566 763.275C241.43 707.871 253.765 558.639 132.044 534.102C-77.5868 491.845 33.7031 891.99 132.044 1081.98C321.932 1448.85 1299.48 1480.17 1189.38 1081.98C1142.89 913.829 1075.44 776.123 905.471 737.16C782.077 708.874 716.708 814.432 590.134 812.307C495.418 810.717 437.354 805.544 352.566 763.275Z" fill="#501E85"/>
<path d="M352.566 814.275C241.43 758.871 253.765 609.639 132.044 585.102C-77.5868 542.845 33.7031 942.99 132.044 1132.98C321.932 1499.85 1299.48 1531.17 1189.38 1132.98C1142.89 964.829 1075.44 827.123 905.471 788.16C782.077 759.874 716.708 865.432 590.134 863.307C495.418 861.717 437.354 856.544 352.566 814.275Z" fill="#AE3BFF"/>
<path d="M1726 1068C1726 1260.2 1491.17 1416 1201.5 1416C911.827 1416 677 1260.2 677 1068C677 875.805 911.827 720 1201.5 720C1491.17 720 1726 875.805 1726 1068Z" fill="#6B3EE1"/>
<path d="M1500 1068.5C1500 1216.24 1319.79 1336 1097.5 1336C875.205 1336 695 1216.24 695 1068.5C695 920.764 875.205 801 1097.5 801C1319.79 801 1500 920.764 1500 1068.5Z" fill="#6B3EE1"/>
<path d="M1790 960C1790 1063.83 1705.83 1148 1602 1148C1498.17 1148 1414 1063.83 1414 960C1414 856.17 1498.17 772 1602 772C1705.83 772 1790 856.17 1790 960Z" fill="#CD84F7"/>
<path d="M280 960C280 1063.83 195.83 1148 92 1148C-11.8295 1148 -96 1063.83 -96 960C-96 856.17 -11.8295 772 92 772C195.83 772 280 856.17 280 960Z" fill="#CD84F7"/>
</g>
<defs>
<filter id="filter0_f_49_32" x="-346" y="0" width="2612" height="1670" filterUnits="userSpaceOnUse" color-interpolation-filters="sRGB">
<feFlood flood-opacity="0" result="BackgroundImageFix"/>
<feBlend mode="normal" in="SourceGraphic" in2="BackgroundImageFix" result="shape"/>
<feGaussianBlur stdDeviation="125" result="effect1_foregroundBlur_49_32"/>
</filter>
</defs>
</svg>
