<svg width="336" height="107" viewBox="0 0 336 107" fill="none" xmlns="http://www.w3.org/2000/svg">
<g clip-path="url(#clip0_15_144)">
<path d="M136.812 45.366V54.6139C135.158 56.2668 134.234 57.1892 132.579 58.842H119.405V65.8657H114.114V41.1339L119.405 46.0965V53.8752H131.521V46.0965H119.405V41.1339H132.579C134.234 42.7826 135.158 43.7091 136.812 45.3619V45.366Z" fill="white"/>
<path d="M160.945 41.1382V54.6142C159.29 56.2671 158.367 57.1894 156.712 58.8423H142.48C140.825 57.1894 139.902 56.2671 138.247 54.6142V41.1382H143.538V53.8837H155.654V41.1382H160.945Z" fill="white"/>
<path d="M187.272 65.87H180.824L170.397 50.9166H176.636V45.8968H167.99V58.8464H162.698V41.1341H177.694C179.349 42.787 180.273 43.7093 181.928 45.3622V48.1006C180.824 49.2026 180.207 49.8188 179.104 50.9207H176.849L187.276 65.8741L187.272 65.87Z" fill="white"/>
<path d="M208.888 45.3663V54.6142C207.233 56.2671 206.31 57.1894 204.655 58.8423H191.481V65.866H186.189V41.1341L191.481 46.0968V53.8755H203.596V46.0968H191.481V41.1341H204.655C206.31 42.7829 207.233 43.7093 208.888 45.3622V45.3663Z" fill="white"/>
<path d="M222.875 54.0795V58.8423H214.556C212.901 57.1894 211.977 56.2671 210.322 54.6142V41.13H215.614V54.0795H222.875Z" fill="white"/>
<path d="M237.704 48.1863V45.8927H229.057V54.0795H242.995V55.1774C241.561 56.6099 240.76 57.4098 239.326 58.8423H227.999C226.344 57.1894 225.421 56.2671 223.766 54.6142V45.3581C225.421 43.7052 226.344 42.7829 227.999 41.13H238.762C240.417 42.7829 241.34 43.7052 242.995 45.3581V48.974C241.892 50.0759 241.275 50.6922 240.172 51.7941H230.173V48.1904H237.699L237.704 48.1863Z" fill="white"/>
<path d="M265.534 48.3333V46.0396H256.888V54.2265H270.826V55.3243C269.392 56.7568 268.591 57.5567 267.157 58.9892H255.83C254.175 57.3363 253.251 56.414 251.596 54.7611V45.505C253.251 43.8521 254.175 42.9298 255.83 41.2769H266.593C268.248 42.9298 269.171 43.8521 270.826 45.505V49.1209C269.723 50.2228 269.106 50.8391 268.002 51.941H258.004V48.3373H265.53L265.534 48.3333Z" fill="white"/>
<path d="M291.596 45.505V54.8795C289.941 56.5323 289.017 57.4547 287.363 59.1076H272.366V41.2729H287.363C289.017 42.9257 289.941 43.8481 291.596 45.5009V45.505ZM286.304 46.0397H277.658V54.3448H286.304V46.0397Z" fill="white"/>
<path d="M330.708 48.3333V46.0396H322.062V54.2265H336V55.3243C334.566 56.7568 333.765 57.5567 332.331 58.9892H321.004C319.349 57.3363 318.425 56.414 316.771 54.7611V45.505C318.425 43.8521 319.349 42.9298 321.004 41.2769H331.767C333.422 42.9298 334.345 43.8521 336 45.505V49.1209C334.897 50.2228 334.28 50.8391 333.176 51.941H323.178V48.3373H330.704L330.708 48.3333Z" fill="white"/>
<path d="M311.246 56.8996C312.901 55.2468 313.824 54.3244 315.479 52.6715V45.5132C313.824 43.8603 312.901 42.938 311.246 41.2851H308.705H303.85H297.014C295.359 42.938 294.436 43.8603 292.781 45.5132V52.6715C294.346 54.2346 295.277 55.1651 296.769 56.6548C295.997 57.4261 295.408 58.0138 294.517 58.9035V61.6419C296.172 63.2948 297.096 64.2172 298.751 65.87H311.777V61.1073H299.809V56.8996H311.246ZM298.076 51.9369V46.2478H310.192V51.9369H298.076Z" fill="white"/>
<path d="M88.4161 19.8795L58.3053 2.51412C52.4907 -0.840602 45.3236 -0.840602 39.509 2.51412L9.39814 19.8795C3.58355 23.2301 0 29.4294 0 36.1348V70.8614C0 77.5668 3.58355 83.766 9.39814 87.1208L39.509 104.482C45.3236 107.837 52.4907 107.837 58.3053 104.482L88.4161 87.1208C94.2307 83.766 97.8143 77.5708 97.8143 70.8614V36.1348C97.8143 29.4294 94.2307 23.2301 88.4161 19.8754V19.8795ZM88.5591 67.9964C88.5346 69.3636 88.4774 70.7308 88.4284 72.098C88.4202 72.3388 88.4079 72.5877 88.2853 72.7918C87.9748 73.306 87.2393 73.3142 86.7163 73.2979C84.1624 73.2244 81.6168 73.2162 79.0588 73.2326C77.1506 73.2448 75.2424 73.2775 73.33 73.2775C72.7335 73.2815 72.5904 73.0367 72.5986 72.4939C72.6231 70.8206 72.6395 69.1432 72.5904 67.474C72.5659 66.7313 72.8969 66.6456 73.518 66.6537C75.8308 66.6864 78.1476 66.6374 80.4604 66.6945C81.4942 66.719 81.772 66.2946 81.723 65.3355C81.3389 57.9078 72.6885 58.5934 67.4378 58.622C63.936 58.6383 60.3116 58.3118 57.1162 56.7773C56.5114 56.4875 55.923 56.1896 55.3796 55.8019C54.5624 55.3897 53.8309 54.8306 53.1077 54.2674C52.4989 53.794 51.8818 53.345 51.2567 52.8961C51.1831 52.8431 51.1096 52.7941 51.0278 52.7696C51.0033 52.7614 54.6236 59.2709 54.9097 59.7851C56.6626 62.9276 58.3175 66.1354 59.6292 69.486C60.2625 71.1022 60.9286 72.804 61.2514 74.51C61.5946 76.322 61.7376 78.1789 61.8806 80.0155C61.9133 80.4481 61.9542 80.9011 62.1912 81.2643C62.6734 81.7459 63.3558 81.6398 63.9768 81.6357C64.7287 81.6357 65.4765 81.6316 66.2283 81.6275C66.8944 81.6275 67.6748 81.5132 67.6462 80.6684C67.6013 79.3543 67.6544 78.0361 67.6053 76.726C67.5808 76.0445 67.8219 75.8241 68.492 75.8404C70.0856 75.8772 71.6833 75.8404 73.2769 75.8527C73.5997 75.8527 74.086 75.7098 74.0696 76.2853C74.0206 78.5054 74.4456 80.7541 73.8776 82.9417C73.0644 86.0597 70.9642 87.9533 67.8178 88.4676C64.4958 89.0103 60.1645 89.2022 57.5166 86.7086C56.2622 85.5291 55.5921 83.8477 55.2611 82.1581C55.1385 81.5255 55.0527 80.8847 54.9914 80.2399C54.8361 78.6687 54.8034 77.1097 54.4888 75.5507C54.1823 74.008 53.7084 72.498 53.0873 71.0532C51.9023 68.2984 50.0431 65.9885 48.4127 63.499C46.8518 61.1197 44.1141 57.0262 43.3663 55.0061C43.1783 54.4755 42.9822 53.9246 42.6635 53.4552C42.6471 53.4307 42.6185 53.4022 42.5899 53.4144C42.5736 53.4226 42.5654 53.4389 42.5613 53.4552C42.3162 54.1939 42.3448 54.9816 42.402 55.7448C42.4633 56.5202 42.5899 57.2834 42.7861 58.0343C44.6085 65.009 49.7816 70.6696 50.9747 77.881C51.6408 81.905 51.4283 87.986 48.237 91.0101C46.7456 92.4222 44.6453 93.0548 42.5899 93.1527C39.6111 93.2915 35.8028 92.8711 33.5023 90.7816C32.4685 89.8388 31.729 88.5696 31.3162 86.9861C30.7401 84.7659 31.1692 82.4805 31.1201 80.2277C31.1079 79.6441 31.5982 79.791 31.9251 79.7869C33.5432 79.7747 35.1654 79.8114 36.7835 79.7747C37.4659 79.7583 37.7111 79.9828 37.6866 80.6766C37.6375 82.0111 37.6866 83.3457 37.6416 84.6802C37.6416 85.2802 37.899 85.6638 38.5283 85.676C39.1576 85.6883 39.7909 85.676 40.4202 85.676C41.0086 85.676 41.6133 85.7617 42.1977 85.7291C42.5041 85.7128 42.8147 85.6311 43.0598 85.4516C43.9343 84.8149 43.8812 83.3498 43.8526 82.3989C43.824 81.4031 43.6646 80.4236 43.587 79.4319C43.3173 76.1057 42.2957 72.902 40.5142 70.0737C37.613 65.4661 34.434 60.5524 34.434 54.9081C34.434 54.3653 34.4299 53.8307 34.4667 53.2879C34.5075 52.7247 34.5075 52.1574 34.4748 51.5983C34.4748 51.5616 34.4667 51.5208 34.434 51.5044C34.4013 51.4881 34.3604 51.5085 34.3277 51.533C34.009 51.7697 33.7639 52.1207 33.5105 52.4227C33.2408 52.741 32.9711 53.0594 32.6647 53.345C32.0354 53.9327 31.3735 54.4796 30.6788 54.9857C28.9504 56.2467 27.0299 57.2425 25.0031 57.9241C22.2695 58.8424 19.115 59.3403 17.3457 61.6135C15.605 63.8418 16.0504 67.4863 18.3427 69.1473C18.7227 69.5269 19.3888 69.7636 19.8873 69.9309C20.4389 70.1145 21.0151 70.2247 21.5953 70.286C22.8865 70.4206 24.2309 70.3431 25.5139 70.1676C25.6202 70.1513 25.7346 70.135 25.8204 70.0737C25.9471 69.9799 25.9961 69.8085 26.0002 69.6534C26.0247 68.7637 25.9879 67.8699 25.9797 66.9802C25.9797 66.768 25.9797 66.5354 26.1228 66.3762C26.2862 66.1885 26.5722 66.1721 26.8215 66.1721C28.4478 66.1681 30.0741 66.164 31.6963 66.1599C31.8393 66.1599 31.9946 66.1599 32.109 66.2497C32.2602 66.364 32.2888 66.5803 32.301 66.7721C32.4522 69.1065 32.5952 71.5266 31.729 73.7019C30.3397 77.179 27.2628 77.5055 23.9694 77.5178C20.5166 77.53 17.0229 76.8648 14.2688 74.6528C11.2982 72.2612 9.31234 68.58 9.25104 64.7397C9.19384 61.2788 10.7098 57.8915 13.1247 55.4428C15.8747 52.6512 19.4378 52.1288 22.8089 50.4474C27.3976 48.1579 29.8412 44.3583 30.4541 39.367C30.9894 35.0247 31.4225 30.6823 33.4901 26.7073C37.0246 19.9121 42.7452 16.0554 50.0921 14.5372C52.8584 13.9659 55.7187 13.6475 58.579 13.9863C62.7183 14.4801 66.6737 15.5616 69.9467 18.2715C74.7561 22.2588 76.8523 27.3235 75.5938 33.5759C74.9931 36.5551 73.3913 38.9875 71.2175 41.0158C67.5073 44.4726 63.0329 45.9744 57.9784 45.8439C57.4022 45.8275 56.5441 45.5133 56.3112 45.9949C56.062 46.505 56.7566 47.1131 57.0958 47.5988C57.7945 48.5946 58.6444 49.4761 59.6946 50.1291C61.4679 51.1575 63.4007 51.4922 65.4315 51.4963C70.5024 51.5044 76.2189 50.7535 80.8894 53.1532C84.7917 55.1571 87.7542 58.9281 88.3507 63.3153C88.5632 64.8743 88.6 66.4497 88.5714 68.0168L88.5591 67.9964Z" fill="white"/>
<path d="M38.9329 31.7433C41.4867 30.2986 44.0487 28.8498 46.5944 27.4132C48.0531 29.3967 46.9989 32.1351 45.1602 33.3023C43.5093 34.3512 40.2976 34.392 38.9288 31.7433H38.9329Z" fill="white"/>
</g>
<defs>
<clipPath id="clip0_15_144">
<rect width="336" height="107" fill="white"/>
</clipPath>
</defs>
</svg>
